<svg xmlns="http://www.w3.org/2000/svg" xmlns:svgjs="http://svgjs.dev/svgjs" xmlns:xlink="http://www.w3.org/1999/xlink" width="2000" height="686" version="1.1" viewBox="0 0 2000 686"><g transform="matrix(1,0,0,1,-1.2121212121213603,1.0006652135550667)"><svg xmlns="http://www.w3.org/2000/svg" xmlns:xlink="http://www.w3.org/1999/xlink" width="2000" height="686" data-background-color="#121212" preserveAspectRatio="xMidYMid meet" viewBox="0 0 396 136"><g id="tight-bounds" transform="matrix(1,0,0,1,0.24000000000003752,-0.19838260793511608)"><svg width="395.52" height="136.397" viewBox="0 0 395.52 136.397"><g><svg width="395.52" height="136.397" viewBox="0 0 663.884 228.943"><g transform="matrix(1,0,0,1,268.36376201111744,82.8321152697356)"><svg width="395.52" height="63.279" viewBox="0 0 395.52 63.279"><g><svg width="395.52" height="63.279" viewBox="0 0 395.52 63.279"><g><svg width="395.52" height="40.55" viewBox="0 0 395.52 40.55"><g transform="matrix(1,0,0,1,0,0)"><svg width="395.52" height="40.55" data-palette-color="#fafafa" viewBox="1.9 -35.7 352.58 36.15"><path id="text-0" fill="#000" d="M15.95 0.45Q12 0.45 8.15-0.6 4.3-1.65 1.9-3.4L1.9-3.4 4.75-9.9Q7.3-8.3 10.2-7.45 13.1-6.6 16.05-6.6L16.05-6.6Q19.05-6.6 20.63-7.43 22.2-8.25 22.2-9.75L22.2-9.75Q22.2-11.1 20.78-11.95 19.35-12.8 15.35-13.65L15.35-13.65Q10.4-14.7 7.6-16.15 4.8-17.6 3.68-19.55 2.55-21.5 2.55-24.35L2.55-24.35Q2.55-27.6 4.38-30.18 6.2-32.75 9.53-34.23 12.85-35.7 17.15-35.7L17.15-35.7Q20.95-35.7 24.53-34.63 28.1-33.55 30.1-31.85L30.1-31.85 27.3-25.35Q22.5-28.65 17.2-28.65L17.2-28.65Q14.65-28.65 13.1-27.68 11.55-26.7 11.55-25.1L11.55-25.1Q11.55-24.15 12.1-23.55 12.65-22.95 14.15-22.38 15.65-21.8 18.6-21.2L18.6-21.2Q23.4-20.15 26.15-18.68 28.9-17.2 30.05-15.25 31.2-13.3 31.2-10.6L31.2-10.6Q31.2-5.4 27.2-2.48 23.2 0.45 15.95 0.45L15.95 0.45ZM51.8 0.45Q44.15 0.45 40.17-3.45 36.2-7.35 36.2-14.85L36.2-14.85 36.2-35.25 45.2-35.25 45.2-14.5Q45.2-10.7 46.9-8.65 48.6-6.6 51.8-6.6L51.8-6.6Q55-6.6 56.7-8.65 58.4-10.7 58.4-14.5L58.4-14.5 58.4-35.25 67.45-35.25 67.45-14.85Q67.45-7.4 63.42-3.48 59.4 0.45 51.8 0.45L51.8 0.45ZM91.6-15.2L102.15-35.25 109.25-35.25 109.25 0 101.25 0 101.25-18.5 94.45-5.85 88.55-5.85 81.8-18.2 81.75 0 73.75 0 73.75-35.25 81-35.25 91.6-15.2ZM133.69-15.2L144.24-35.25 151.34-35.25 151.34 0 143.34 0 143.34-18.5 136.54-5.85 130.64-5.85 123.89-18.2 123.84 0 115.84 0 115.84-35.25 123.09-35.25 133.69-15.2ZM193.79 0L184.69 0 181.54-7.3 165.94-7.3 162.79 0 153.54 0 169.99-35.25 177.29-35.25 193.79 0ZM173.74-25.5L168.89-14.2 178.59-14.2 173.74-25.5ZM208.09 0.45Q204.14 0.45 200.29-0.6 196.44-1.65 194.04-3.4L194.04-3.4 196.89-9.9Q199.44-8.3 202.34-7.45 205.24-6.6 208.19-6.6L208.19-6.6Q211.19-6.6 212.76-7.43 214.34-8.25 214.34-9.75L214.34-9.75Q214.34-11.1 212.91-11.95 211.49-12.8 207.49-13.65L207.49-13.65Q202.54-14.7 199.74-16.15 196.94-17.6 195.81-19.55 194.69-21.5 194.69-24.35L194.69-24.35Q194.69-27.6 196.51-30.18 198.34-32.75 201.66-34.23 204.99-35.7 209.29-35.7L209.29-35.7Q213.09-35.7 216.66-34.63 220.24-33.55 222.24-31.85L222.24-31.85 219.44-25.35Q214.64-28.65 209.34-28.65L209.34-28.65Q206.79-28.65 205.24-27.68 203.69-26.7 203.69-25.1L203.69-25.1Q203.69-24.15 204.24-23.55 204.79-22.95 206.29-22.38 207.79-21.8 210.74-21.2L210.74-21.2Q215.54-20.15 218.29-18.68 221.04-17.2 222.19-15.25 223.34-13.3 223.34-10.6L223.34-10.6Q223.34-5.4 219.34-2.48 215.34 0.45 208.09 0.45L208.09 0.45ZM253.59 0L228.54 0 228.54-35.25 253.59-35.25 253.59-28.15 237.49-28.15 237.49-21.45 252.59-21.45 252.59-14.4 237.49-14.4 237.49-7.1 253.59-7.1 253.59 0ZM281.23-15.1L281.23-35.25 289.83-35.25 289.83 0 283.03 0 266.93-20.15 266.93 0 258.38 0 258.38-35.25 265.08-35.25 281.23-15.1ZM308.98 0.45Q305.03 0.45 301.18-0.6 297.33-1.65 294.93-3.4L294.93-3.4 297.78-9.9Q300.33-8.3 303.23-7.45 306.13-6.6 309.08-6.6L309.08-6.6Q312.08-6.6 313.66-7.43 315.23-8.25 315.23-9.75L315.23-9.75Q315.23-11.1 313.81-11.95 312.38-12.8 308.38-13.65L308.38-13.65Q303.43-14.7 300.63-16.15 297.83-17.6 296.71-19.55 295.58-21.5 295.58-24.35L295.58-24.35Q295.58-27.6 297.41-30.18 299.23-32.75 302.56-34.23 305.88-35.7 310.18-35.7L310.18-35.7Q313.98-35.7 317.56-34.63 321.13-33.55 323.13-31.85L323.13-31.85 320.33-25.35Q315.53-28.65 310.23-28.65L310.23-28.65Q307.68-28.65 306.13-27.68 304.58-26.7 304.58-25.1L304.58-25.1Q304.58-24.15 305.13-23.55 305.68-22.95 307.18-22.38 308.68-21.8 311.63-21.2L311.63-21.2Q316.43-20.15 319.18-18.68 321.93-17.2 323.08-15.25 324.23-13.3 324.23-10.6L324.23-10.6Q324.23-5.4 320.23-2.48 316.23 0.45 308.98 0.45L308.98 0.45ZM354.48 0L329.43 0 329.43-35.25 354.48-35.25 354.48-28.15 338.38-28.15 338.38-21.45 353.48-21.45 353.48-14.4 338.38-14.4 338.38-7.1 354.48-7.1 354.48 0Z" class="undefined-text-0" data-fill-palette-color="primary" opacity="1" transform="matrix(1,0,0,1,0,0)"/></svg></g></svg></g><g transform="matrix(1,0,0,1,0,50.12329546128191)"><svg width="232.21" height="13.156" viewBox="0 0 232.21 13.156"><g transform="matrix(1,0,0,1,0,0)"><svg width="232.21" height="13.156" data-palette-color="#fafafa" viewBox="2.05 -37.85 675.09 38.25"><path id="text-1" fill="#000" d="M15.45 0.4Q11.5 0.4 7.83-0.83 4.15-2.05 2.05-4L2.05-4 3.9-7.9Q5.9-6.1 9.03-4.98 12.15-3.85 15.45-3.85L15.45-3.85Q19.8-3.85 21.95-5.33 24.1-6.8 24.1-9.25L24.1-9.25Q24.1-11.05 22.93-12.18 21.75-13.3 20.03-13.9 18.3-14.5 15.15-15.25L15.15-15.25Q11.2-16.2 8.78-17.15 6.35-18.1 4.63-20.08 2.9-22.05 2.9-25.4L2.9-25.4Q2.9-28.2 4.38-30.45 5.85-32.7 8.85-34.05 11.85-35.4 16.3-35.4L16.3-35.4Q19.4-35.4 22.4-34.6 25.4-33.8 27.55-32.3L27.55-32.3 25.9-28.3Q23.7-29.7 21.2-30.43 18.7-31.15 16.3-31.15L16.3-31.15Q12.05-31.15 9.93-29.6 7.8-28.05 7.8-25.6L7.8-25.6Q7.8-23.8 9-22.68 10.2-21.55 11.98-20.93 13.75-20.3 16.8-19.6L16.8-19.6Q20.75-18.65 23.15-17.7 25.55-16.75 27.28-14.8 29-12.85 29-9.55L29-9.55Q29-6.8 27.5-4.53 26-2.25 22.95-0.93 19.9 0.4 15.45 0.4L15.45 0.4ZM68.75-26.75Q73.75-26.75 76.67-23.85 79.6-20.95 79.6-15.25L79.6-15.25 79.6 0 74.8 0 74.8-14.7Q74.8-18.55 73.02-20.5 71.25-22.45 67.95-22.45L67.95-22.45Q64.3-22.45 62.15-20.18 60-17.9 60-13.65L60-13.65 60 0 55.2 0 55.2-14.7Q55.2-18.55 53.42-20.5 51.65-22.45 48.35-22.45L48.35-22.45Q44.7-22.45 42.55-20.18 40.4-17.9 40.4-13.65L40.4-13.65 40.4 0 35.6 0 35.6-26.5 40.2-26.5 40.2-22.55Q41.65-24.6 44-25.68 46.35-26.75 49.35-26.75L49.35-26.75Q52.45-26.75 54.85-25.5 57.25-24.25 58.55-21.85L58.55-21.85Q60.05-24.15 62.72-25.45 65.4-26.75 68.75-26.75L68.75-26.75ZM98.1-26.75Q103.6-26.75 106.52-24.05 109.45-21.35 109.45-16L109.45-16 109.45 0 104.9 0 104.9-3.5Q103.7-1.65 101.47-0.68 99.25 0.3 96.2 0.3L96.2 0.3Q91.75 0.3 89.07-1.85 86.4-4 86.4-7.5L86.4-7.5Q86.4-11 88.95-13.13 91.5-15.25 97.05-15.25L97.05-15.25 104.65-15.25 104.65-16.2Q104.65-19.3 102.85-20.95 101.05-22.6 97.55-22.6L97.55-22.6Q95.2-22.6 92.95-21.83 90.7-21.05 89.15-19.75L89.15-19.75 87.15-23.35Q89.2-25 92.05-25.88 94.9-26.75 98.1-26.75L98.1-26.75ZM97-3.4Q99.75-3.4 101.75-4.63 103.75-5.85 104.65-8.1L104.65-8.1 104.65-11.8 97.25-11.8Q91.15-11.8 91.15-7.7L91.15-7.7Q91.15-5.7 92.7-4.55 94.25-3.4 97-3.4L97-3.4ZM122.94-22.05Q124.19-24.35 126.64-25.55 129.09-26.75 132.59-26.75L132.59-26.75 132.59-22.1Q132.19-22.15 131.49-22.15L131.49-22.15Q127.59-22.15 125.37-19.83 123.14-17.5 123.14-13.2L123.14-13.2 123.14 0 118.34 0 118.34-26.5 122.94-26.5 122.94-22.05ZM152.99-5L154.49-1.55Q153.44-0.65 151.89-0.18 150.34 0.3 148.69 0.3L148.69 0.3Q144.69 0.3 142.49-1.85 140.29-4 140.29-8L140.29-8 140.29-22.55 135.79-22.55 135.79-26.5 140.29-26.5 140.29-32.3 145.09-32.3 145.09-26.5 152.69-26.5 152.69-22.55 145.09-22.55 145.09-8.2Q145.09-6.05 146.17-4.9 147.24-3.75 149.24-3.75L149.24-3.75Q151.44-3.75 152.99-5L152.99-5ZM183.34-13.1Q183.34-12.55 183.24-11.65L183.24-11.65 161.74-11.65Q162.19-8.15 164.81-6.03 167.44-3.9 171.34-3.9L171.34-3.9Q176.09-3.9 178.99-7.1L178.99-7.1 181.64-4Q179.84-1.9 177.16-0.8 174.49 0.3 171.19 0.3L171.19 0.3Q166.99 0.3 163.74-1.43 160.49-3.15 158.71-6.25 156.94-9.35 156.94-13.25L156.94-13.25Q156.94-17.1 158.66-20.2 160.39-23.3 163.41-25.03 166.44-26.75 170.24-26.75L170.24-26.75Q174.04-26.75 177.01-25.03 179.99-23.3 181.66-20.2 183.34-17.1 183.34-13.1L183.34-13.1ZM170.24-22.7Q166.79-22.7 164.46-20.6 162.14-18.5 161.74-15.1L161.74-15.1 178.74-15.1Q178.34-18.45 176.01-20.58 173.69-22.7 170.24-22.7L170.24-22.7ZM194.59-22.05Q195.84-24.35 198.28-25.55 200.74-26.75 204.24-26.75L204.24-26.75 204.24-22.1Q203.84-22.15 203.13-22.15L203.13-22.15Q199.24-22.15 197.01-19.83 194.78-17.5 194.78-13.2L194.78-13.2 194.78 0 189.99 0 189.99-26.5 194.59-26.5 194.59-22.05ZM257.08-26.75Q262.08-26.75 265-23.85 267.93-20.95 267.93-15.25L267.93-15.25 267.93 0 263.13 0 263.13-14.7Q263.13-18.55 261.36-20.5 259.58-22.45 256.28-22.45L256.28-22.45Q252.63-22.45 250.48-20.18 248.33-17.9 248.33-13.65L248.33-13.65 248.33 0 243.53 0 243.53-14.7Q243.53-18.55 241.75-20.5 239.98-22.45 236.68-22.45L236.68-22.45Q233.03-22.45 230.88-20.18 228.73-17.9 228.73-13.65L228.73-13.65 228.73 0 223.93 0 223.93-26.5 228.53-26.5 228.53-22.55Q229.98-24.6 232.33-25.68 234.68-26.75 237.68-26.75L237.68-26.75Q240.78-26.75 243.18-25.5 245.58-24.25 246.88-21.85L246.88-21.85Q248.38-24.15 251.06-25.45 253.73-26.75 257.08-26.75L257.08-26.75ZM300.88-13.1Q300.88-12.55 300.78-11.65L300.78-11.65 279.28-11.65Q279.73-8.15 282.35-6.03 284.98-3.9 288.88-3.9L288.88-3.9Q293.63-3.9 296.53-7.1L296.53-7.1 299.18-4Q297.38-1.9 294.7-0.8 292.03 0.3 288.73 0.3L288.73 0.3Q284.53 0.3 281.28-1.43 278.03-3.15 276.25-6.25 274.48-9.35 274.48-13.25L274.48-13.25Q274.48-17.1 276.2-20.2 277.93-23.3 280.95-25.03 283.98-26.75 287.78-26.75L287.78-26.75Q291.58-26.75 294.55-25.03 297.53-23.3 299.2-20.2 300.88-17.1 300.88-13.1L300.88-13.1ZM287.78-22.7Q284.33-22.7 282-20.6 279.68-18.5 279.28-15.1L279.28-15.1 296.28-15.1Q295.88-18.45 293.55-20.58 291.23-22.7 287.78-22.7L287.78-22.7ZM327.73-37.1L332.53-37.1 332.53 0 327.93 0 327.93-4.2Q326.33-2 323.88-0.85 321.43 0.3 318.48 0.3L318.48 0.3Q314.63 0.3 311.58-1.4 308.53-3.1 306.8-6.18 305.08-9.25 305.08-13.25L305.08-13.25Q305.08-17.25 306.8-20.3 308.53-23.35 311.58-25.05 314.63-26.75 318.48-26.75L318.48-26.75Q321.33-26.75 323.73-25.68 326.13-24.6 327.73-22.5L327.73-22.5 327.73-37.1ZM318.88-3.9Q321.38-3.9 323.43-5.08 325.48-6.25 326.63-8.38 327.78-10.5 327.78-13.25L327.78-13.25Q327.78-16 326.63-18.13 325.48-20.25 323.43-21.4 321.38-22.55 318.88-22.55L318.88-22.55Q316.33-22.55 314.3-21.4 312.28-20.25 311.1-18.13 309.93-16 309.93-13.25L309.93-13.25Q309.93-10.5 311.1-8.38 312.28-6.25 314.3-5.08 316.33-3.9 318.88-3.9L318.88-3.9ZM341.62 0L341.62-26.5 346.42-26.5 346.42 0 341.62 0ZM344.02-31.6Q342.62-31.6 341.7-32.5 340.77-33.4 340.77-34.7L340.77-34.7Q340.77-36 341.7-36.93 342.62-37.85 344.02-37.85L344.02-37.85Q345.42-37.85 346.35-36.98 347.27-36.1 347.27-34.8L347.27-34.8Q347.27-33.45 346.35-32.52 345.42-31.6 344.02-31.6L344.02-31.6ZM365.22-26.75Q370.72-26.75 373.65-24.05 376.57-21.35 376.57-16L376.57-16 376.57 0 372.02 0 372.02-3.5Q370.82-1.65 368.6-0.68 366.37 0.3 363.32 0.3L363.32 0.3Q358.87 0.3 356.2-1.85 353.52-4 353.52-7.5L353.52-7.5Q353.52-11 356.07-13.13 358.62-15.25 364.17-15.25L364.17-15.25 371.77-15.25 371.77-16.2Q371.77-19.3 369.97-20.95 368.17-22.6 364.67-22.6L364.67-22.6Q362.32-22.6 360.07-21.83 357.82-21.05 356.27-19.75L356.27-19.75 354.27-23.35Q356.32-25 359.17-25.88 362.02-26.75 365.22-26.75L365.22-26.75ZM364.12-3.4Q366.87-3.4 368.87-4.63 370.87-5.85 371.77-8.1L371.77-8.1 371.77-11.8 364.37-11.8Q358.27-11.8 358.27-7.7L358.27-7.7Q358.27-5.7 359.82-4.55 361.37-3.4 364.12-3.4L364.12-3.4ZM406.51 0.3Q403.26 0.3 400.26-0.58 397.26-1.45 395.56-2.8L395.56-2.8 397.56-6.6Q399.31-5.35 401.81-4.6 404.31-3.85 406.87-3.85L406.87-3.85Q413.17-3.85 413.17-7.45L413.17-7.45Q413.17-8.65 412.31-9.35 411.47-10.05 410.19-10.38 408.92-10.7 406.56-11.1L406.56-11.1Q403.37-11.6 401.34-12.25 399.31-12.9 397.87-14.45 396.42-16 396.42-18.8L396.42-18.8Q396.42-22.4 399.42-24.58 402.42-26.75 407.47-26.75L407.47-26.75Q410.12-26.75 412.76-26.1 415.42-25.45 417.12-24.35L417.12-24.35 415.06-20.55Q411.81-22.65 407.42-22.65L407.42-22.65Q404.37-22.65 402.76-21.65 401.17-20.65 401.17-19L401.17-19Q401.17-17.7 402.06-16.95 402.97-16.2 404.29-15.85 405.62-15.5 408.01-15.05L408.01-15.05Q411.22-14.5 413.19-13.88 415.17-13.25 416.56-11.75 417.97-10.25 417.97-7.55L417.97-7.55Q417.97-3.95 414.89-1.83 411.81 0.3 406.51 0.3L406.51 0.3ZM443.86-26.5L448.66-26.5 448.66 0 444.11 0 444.11-4Q442.66-1.95 440.29-0.83 437.91 0.3 435.11 0.3L435.11 0.3Q429.81 0.3 426.76-2.63 423.71-5.55 423.71-11.25L423.71-11.25 423.71-26.5 428.51-26.5 428.51-11.8Q428.51-7.95 430.36-5.98 432.21-4 435.66-4L435.66-4Q439.46-4 441.66-6.3 443.86-8.6 443.86-12.8L443.86-12.8 443.86-26.5ZM490.96-26.75Q495.96-26.75 498.89-23.85 501.81-20.95 501.81-15.25L501.81-15.25 501.81 0 497.01 0 497.01-14.7Q497.01-18.55 495.24-20.5 493.46-22.45 490.16-22.45L490.16-22.45Q486.51-22.45 484.36-20.18 482.21-17.9 482.21-13.65L482.21-13.65 482.21 0 477.41 0 477.41-14.7Q477.41-18.55 475.64-20.5 473.86-22.45 470.56-22.45L470.56-22.45Q466.91-22.45 464.76-20.18 462.61-17.9 462.61-13.65L462.61-13.65 462.61 0 457.81 0 457.81-26.5 462.41-26.5 462.41-22.55Q463.86-24.6 466.21-25.68 468.56-26.75 471.56-26.75L471.56-26.75Q474.66-26.75 477.06-25.5 479.46-24.25 480.76-21.85L480.76-21.85Q482.26-24.15 484.94-25.45 487.61-26.75 490.96-26.75L490.96-26.75ZM543.81-26.75Q548.81-26.75 551.73-23.85 554.66-20.95 554.66-15.25L554.66-15.25 554.66 0 549.86 0 549.86-14.7Q549.86-18.55 548.08-20.5 546.31-22.45 543.01-22.45L543.01-22.45Q539.36-22.45 537.21-20.18 535.06-17.9 535.06-13.65L535.06-13.65 535.06 0 530.26 0 530.26-14.7Q530.26-18.55 528.48-20.5 526.71-22.45 523.41-22.45L523.41-22.45Q519.76-22.45 517.61-20.18 515.46-17.9 515.46-13.65L515.46-13.65 515.46 0 510.66 0 510.66-26.5 515.26-26.5 515.26-22.55Q516.71-24.6 519.06-25.68 521.41-26.75 524.41-26.75L524.41-26.75Q527.51-26.75 529.91-25.5 532.31-24.25 533.61-21.85L533.61-21.85Q535.11-24.15 537.78-25.45 540.46-26.75 543.81-26.75L543.81-26.75ZM573.16-26.75Q578.66-26.75 581.58-24.05 584.5-21.35 584.5-16L584.5-16 584.5 0 579.96 0 579.96-3.5Q578.75-1.65 576.53-0.68 574.31 0.3 571.25 0.3L571.25 0.3Q566.81 0.3 564.13-1.85 561.46-4 561.46-7.5L561.46-7.5Q561.46-11 564-13.13 566.56-15.25 572.11-15.25L572.11-15.25 579.71-15.25 579.71-16.2Q579.71-19.3 577.91-20.95 576.11-22.6 572.61-22.6L572.61-22.6Q570.25-22.6 568-21.83 565.75-21.05 564.21-19.75L564.21-19.75 562.21-23.35Q564.25-25 567.11-25.88 569.96-26.75 573.16-26.75L573.16-26.75ZM572.06-3.4Q574.81-3.4 576.81-4.63 578.81-5.85 579.71-8.1L579.71-8.1 579.71-11.8 572.31-11.8Q566.21-11.8 566.21-7.7L566.21-7.7Q566.21-5.7 567.75-4.55 569.31-3.4 572.06-3.4L572.06-3.4ZM598-22.05Q599.25-24.35 601.7-25.55 604.15-26.75 607.65-26.75L607.65-26.75 607.65-22.1Q607.25-22.15 606.55-22.15L606.55-22.15Q602.65-22.15 600.43-19.83 598.2-17.5 598.2-13.2L598.2-13.2 598.2 0 593.4 0 593.4-26.5 598-26.5 598-22.05ZM613.55 0L613.55-26.5 618.35-26.5 618.35 0 613.55 0ZM615.95-31.6Q614.55-31.6 613.62-32.5 612.7-33.4 612.7-34.7L612.7-34.7Q612.7-36 613.62-36.93 614.55-37.85 615.95-37.85L615.95-37.85Q617.35-37.85 618.27-36.98 619.2-36.1 619.2-34.8L619.2-34.8Q619.2-33.45 618.27-32.52 617.35-31.6 615.95-31.6L615.95-31.6ZM651.45-13.1Q651.45-12.55 651.35-11.65L651.35-11.65 629.85-11.65Q630.3-8.15 632.92-6.03 635.55-3.9 639.45-3.9L639.45-3.9Q644.2-3.9 647.1-7.1L647.1-7.1 649.75-4Q647.95-1.9 645.27-0.8 642.6 0.3 639.3 0.3L639.3 0.3Q635.1 0.3 631.85-1.43 628.6-3.15 626.82-6.25 625.05-9.35 625.05-13.25L625.05-13.25Q625.05-17.1 626.77-20.2 628.5-23.3 631.52-25.03 634.55-26.75 638.35-26.75L638.35-26.75Q642.15-26.75 645.12-25.03 648.1-23.3 649.77-20.2 651.45-17.1 651.45-13.1L651.45-13.1ZM638.35-22.7Q634.9-22.7 632.57-20.6 630.25-18.5 629.85-15.1L629.85-15.1 646.85-15.1Q646.45-18.45 644.12-20.58 641.8-22.7 638.35-22.7L638.35-22.7ZM665.69 0.3Q662.44 0.3 659.44-0.58 656.44-1.45 654.74-2.8L654.74-2.8 656.74-6.6Q658.49-5.35 660.99-4.6 663.49-3.85 666.04-3.85L666.04-3.85Q672.34-3.85 672.34-7.45L672.34-7.45Q672.34-8.65 671.49-9.35 670.64-10.05 669.37-10.38 668.09-10.7 665.74-11.1L665.74-11.1Q662.54-11.6 660.52-12.25 658.49-12.9 657.04-14.45 655.59-16 655.59-18.8L655.59-18.8Q655.59-22.4 658.59-24.58 661.59-26.75 666.64-26.75L666.64-26.75Q669.29-26.75 671.94-26.1 674.59-25.45 676.29-24.35L676.29-24.35 674.24-20.55Q670.99-22.65 666.59-22.65L666.59-22.65Q663.54-22.65 661.94-21.65 660.34-20.65 660.34-19L660.34-19Q660.34-17.7 661.24-16.95 662.14-16.2 663.47-15.85 664.79-15.5 667.19-15.05L667.19-15.05Q670.39-14.5 672.37-13.88 674.34-13.25 675.74-11.75 677.14-10.25 677.14-7.55L677.14-7.55Q677.14-3.95 674.07-1.83 670.99 0.3 665.69 0.3L665.69 0.3Z" class="undefined-text-1" data-fill-palette-color="secondary" opacity="1" transform="matrix(1,0,0,1,0,0)"/></svg></g></svg></g></svg></g></svg></g><g><svg width="244.431" height="228.943" viewBox="0 0 244.431 228.943"><g><svg width="244.431" height="228.943" viewBox="0 0 244.431 228.943"><g transform="matrix(1,0,0,1,79.51712825305951,60.509159000612065)"><svg width="85.397" height="107.925" viewBox="0 0 85.397 107.925"><g><svg xmlns="http://www.w3.org/2000/svg" id="gn-0" width="85.397" height="107.925" x="0" y="0" class="icon-gn-0" data-fill-palette-color="accent" data-name="Layer 1" viewBox="15.58 6.5 68.84 87"><path fill="#000" d="M26.58 6.5a11 11 0 0 0-11 11v65a11 11 0 0 0 11 11H64a1 1 0 0 0 0.38-0.08 1 1 0 0 0 0.16-0.1 1 1 0 0 0 0.15-0.1L84.11 75a1 1 0 0 0 0.31-0.73h0V17.5a11 11 0 0 0-11-11ZM65 90.19V78.25a3 3 0 0 1 3-3H80.89ZM82.42 17.5V73.25H68a5 5 0 0 0-5 5V91.5H26.58a9 9 0 0 1-9-9v-65a9 9 0 0 1 9-9H73.42A9 9 0 0 1 82.42 17.5Z" data-fill-palette-color="accent"/><path fill="#000" d="M31.5 32.33h1a5.33 5.33 0 0 0 0-10.67h-1a5.33 5.33 0 0 0 0 10.67Zm0-8.67h1a3.33 3.33 0 0 1 0 6.67h-1a3.33 3.33 0 0 1 0-6.67Z" data-fill-palette-color="accent"/><path fill="#000" d="M68.5 21.67h-18a5.33 5.33 0 0 0 0 10.67h18a5.33 5.33 0 0 0 0-10.67Zm0 8.67h-18a3.33 3.33 0 0 1 0-6.67h18a3.33 3.33 0 0 1 0 6.67Z" data-fill-palette-color="accent"/><path fill="#000" d="M31.5 54.33h1a5.33 5.33 0 0 0 0-10.67h-1a5.33 5.33 0 0 0 0 10.67Zm0-8.67h1a3.33 3.33 0 0 1 0 6.67h-1a3.33 3.33 0 0 1 0-6.67Z" data-fill-palette-color="accent"/><path fill="#000" d="M68.5 43.67h-18a5.33 5.33 0 0 0 0 10.67h18a5.33 5.33 0 0 0 0-10.67Zm0 8.67h-18a3.33 3.33 0 0 1 0-6.67h18a3.33 3.33 0 0 1 0 6.67Z" data-fill-palette-color="accent"/><path fill="#000" d="M27.17 69.33h9.67a1 1 0 0 0 0-2H27.17a1 1 0 1 0 0 2Z" data-fill-palette-color="accent"/><path fill="#000" d="M50.83 78.33H27.17a1 1 0 1 0 0 2H50.83a1 1 0 0 0 0-2Z" data-fill-palette-color="accent"/></svg></g></svg></g><path fill="#000" d="M29.165 83.905C28.721 85.197 28.112 86.418 27.336 87.568 26.556 88.709 25.745 89.572 24.903 90.157V90.157L22.198 87.663C23.007 87.011 23.714 86.256 24.318 85.4 24.922 84.544 25.39 83.633 25.722 82.669V82.669C26.06 81.686 26.182 80.889 26.088 80.279 25.993 79.676 25.699 79.289 25.208 79.12V79.12C24.767 78.969 24.327 79.079 23.89 79.45 23.452 79.821 22.87 80.611 22.145 81.82V81.82C21.239 83.327 20.393 84.456 19.606 85.208 18.818 85.965 18.039 86.417 17.27 86.561 16.506 86.714 15.657 86.63 14.725 86.31V86.31C13.66 85.944 12.808 85.316 12.169 84.427 11.53 83.538 11.159 82.466 11.054 81.212 10.944 79.954 11.13 78.623 11.613 77.218V77.218C12.042 75.97 12.633 74.824 13.387 73.779 14.143 72.728 14.91 71.97 15.69 71.505V71.505L18.411 73.984C16.788 75.18 15.678 76.645 15.083 78.379V78.379C14.795 79.217 14.725 79.943 14.873 80.558 15.019 81.179 15.353 81.579 15.877 81.759V81.759C16.185 81.865 16.469 81.86 16.727 81.745 16.989 81.638 17.296 81.37 17.648 80.941 18.006 80.514 18.448 79.852 18.975 78.955V78.955C19.863 77.499 20.705 76.403 21.5 75.669 22.289 74.932 23.068 74.488 23.839 74.337 24.605 74.178 25.43 74.25 26.312 74.553V74.553C28.014 75.138 29.118 76.251 29.626 77.891 30.133 79.531 29.98 81.536 29.165 83.905ZM41.448 60.063C39.964 62.253 38.277 63.542 36.389 63.929 34.499 64.306 32.478 63.766 30.327 62.308V62.308L21.555 56.364 24.179 52.491 33.108 58.542C34.195 59.278 35.198 59.604 36.117 59.518 37.031 59.429 37.798 58.926 38.419 58.011V58.011C39.043 57.089 39.227 56.188 38.972 55.306 38.71 54.42 38.036 53.61 36.949 52.873V52.873L28.02 46.823 30.661 42.925 39.433 48.869C41.574 50.319 42.812 52.003 43.146 53.921 43.491 55.836 42.924 57.884 41.448 60.063ZM56.075 32.999L53.73 21.466 56.587 19.133 68.169 33.319 64.948 35.949 58.873 28.508 60.293 35.827 57.916 37.767 51.147 35.009 57.105 42.353 53.883 44.983 42.301 30.798 45.22 28.414ZM84.076 17.106L85.286 5.399 88.71 4.027 95.522 21.026 91.662 22.573 88.089 13.656 87.256 21.065 84.408 22.207 78.773 17.551 82.263 26.34 78.403 27.887 71.59 10.888 75.088 9.486ZM125.42 17.713L120.702 18.023 118.828 14.349 110.738 14.879 109.35 18.767 104.562 19.081 111.892 0.248 115.673 0ZM114.159 5.178L112.03 11.198 117.057 10.869ZM141.1 20.006C139.758 19.751 138.463 19.32 137.215 18.716 135.974 18.106 135.005 17.426 134.306 16.676V16.676L136.391 13.644C137.151 14.352 137.998 14.944 138.932 15.421 139.865 15.897 140.833 16.231 141.834 16.422V16.422C142.856 16.617 143.661 16.624 144.252 16.445 144.836 16.265 145.176 15.919 145.274 15.409V15.409C145.361 14.95 145.19 14.531 144.761 14.151 144.331 13.77 143.466 13.307 142.166 12.761V12.761C140.546 12.079 139.308 11.402 138.452 10.73 137.59 10.056 137.033 9.35 136.78 8.61 136.52 7.875 136.482 7.023 136.667 6.054V6.054C136.878 4.948 137.378 4.015 138.167 3.257 138.956 2.498 139.965 1.978 141.192 1.696 142.421 1.408 143.765 1.403 145.225 1.682V1.682C146.521 1.929 147.739 2.351 148.881 2.949 150.028 3.547 150.888 4.2 151.459 4.905V4.905L149.392 7.951C147.977 6.514 146.369 5.624 144.569 5.281V5.281C143.698 5.115 142.969 5.149 142.382 5.383 141.788 5.616 141.439 6.004 141.336 6.547V6.547C141.274 6.868 141.319 7.148 141.471 7.387 141.614 7.632 141.923 7.897 142.397 8.185 142.87 8.478 143.588 8.822 144.551 9.216V9.216C146.119 9.888 147.323 10.565 148.163 11.248 149.005 11.924 149.555 12.633 149.814 13.374 150.08 14.11 150.126 14.936 149.952 15.853V15.853C149.615 17.62 148.67 18.872 147.119 19.607 145.568 20.343 143.561 20.476 141.1 20.006ZM171.237 30.611L159.451 25.09 167.22 8.506 179.006 14.028 177.441 17.368 169.865 13.818 168.389 16.969 175.495 20.297 173.939 23.62 166.833 20.291 165.225 23.721 172.802 27.271ZM194.428 38.374L201.146 30.348 204.564 33.21 192.809 47.253 190.103 44.988 190.413 31.598 183.695 39.623 180.284 36.768 192.04 22.726 194.707 24.959ZM203.78 61.84C203.013 60.71 202.402 59.489 201.948 58.179 201.503 56.87 201.299 55.703 201.337 54.679V54.679L204.956 54.012C204.992 55.05 205.171 56.068 205.493 57.066 205.816 58.063 206.263 58.983 206.836 59.827V59.827C207.419 60.687 207.983 61.263 208.527 61.555 209.067 61.84 209.553 61.837 209.983 61.545V61.545C210.369 61.284 210.545 60.866 210.51 60.293 210.476 59.721 210.193 58.781 209.661 57.475V57.475C208.999 55.847 208.604 54.492 208.475 53.412 208.342 52.326 208.448 51.433 208.794 50.731 209.13 50.028 209.706 49.399 210.522 48.846V48.846C211.454 48.213 212.467 47.908 213.562 47.931 214.656 47.953 215.737 48.299 216.803 48.969 217.875 49.635 218.828 50.583 219.663 51.812V51.812C220.404 52.904 220.966 54.065 221.349 55.295 221.736 56.53 221.882 57.599 221.786 58.502V58.502L218.17 59.191C218.187 57.175 217.681 55.408 216.652 53.891V53.891C216.154 53.158 215.615 52.666 215.035 52.416 214.45 52.16 213.929 52.187 213.472 52.498V52.498C213.201 52.681 213.035 52.911 212.973 53.187 212.901 53.461 212.931 53.867 213.063 54.406 213.189 54.948 213.453 55.699 213.855 56.659V56.659C214.487 58.244 214.858 59.574 214.969 60.651 215.085 61.724 214.972 62.614 214.63 63.321 214.298 64.03 213.745 64.646 212.973 65.17V65.17C211.484 66.18 209.932 66.396 208.315 65.818 206.699 65.239 205.187 63.914 203.78 61.84ZM217.579 90.659L213.153 78.42 230.375 72.193 234.801 84.433 231.332 85.687 228.487 77.818 225.215 79.001 227.884 86.381 224.434 87.628 221.765 80.249 218.203 81.537 221.047 89.405ZM16.602 154.358C16.151 153.047 15.882 151.695 15.796 150.301 15.702 148.902 15.807 147.706 16.113 146.712V146.712L19.834 147.016C19.596 148.043 19.501 149.087 19.55 150.148 19.597 151.204 19.789 152.223 20.128 153.206V153.206C20.469 154.195 20.868 154.903 21.326 155.331 21.777 155.76 22.251 155.889 22.749 155.717V155.717C23.196 155.563 23.48 155.201 23.601 154.631 23.722 154.06 23.693 153.066 23.514 151.647V151.647C23.3 149.881 23.272 148.453 23.432 147.362 23.591 146.27 23.931 145.424 24.449 144.822 24.964 144.229 25.693 143.769 26.638 143.444V143.444C27.716 143.072 28.787 143.041 29.853 143.351 30.912 143.662 31.877 144.285 32.748 145.218 33.62 146.151 34.302 147.333 34.795 148.763V148.763C35.227 150.017 35.469 151.301 35.521 152.615 35.576 153.921 35.434 155.003 35.095 155.86V155.86L31.384 155.585C31.931 153.613 31.902 151.748 31.296 149.99V149.99C31.005 149.146 30.606 148.522 30.1 148.118 29.603 147.719 29.09 147.61 28.561 147.793V147.793C28.246 147.901 28.019 148.082 27.88 148.334 27.748 148.584 27.67 148.992 27.646 149.557 27.629 150.12 27.691 150.923 27.832 151.967V151.967C28.027 153.676 28.039 155.071 27.869 156.152 27.692 157.235 27.348 158.076 26.835 158.676 26.319 159.284 25.613 159.742 24.719 160.05V160.05C22.992 160.645 21.415 160.446 19.986 159.451 18.56 158.462 17.432 156.764 16.602 154.358ZM30.472 181.318C28.964 179.095 28.387 177.022 28.741 175.099 29.09 173.179 30.351 171.482 32.523 170.008V170.008L41.408 163.981 44.062 167.894 35.029 174.022C33.926 174.77 33.245 175.595 32.986 176.495 32.724 177.39 32.908 178.303 33.541 179.235V179.235C34.169 180.162 34.95 180.671 35.882 180.764 36.811 180.85 37.826 180.52 38.929 179.771V179.771L47.963 173.643 50.634 177.581 41.75 183.608C39.588 185.075 37.544 185.611 35.619 185.218 33.684 184.824 31.968 183.523 30.472 181.318ZM58.064 198.525L69.029 193.859 71.926 196.222 60.206 210.592 56.945 207.932 63.098 200.387 56.117 203.284 53.708 201.32 55.065 194.041 48.997 201.45 45.735 198.79 57.455 184.42 60.407 186.827ZM85.299 213.935L94.367 206.204 97.838 207.592 90.952 224.809 87.044 223.246 90.66 214.206 84.865 219.059 81.978 217.904 81.096 210.554 77.522 219.438 73.614 217.875 80.5 200.658 84.036 202.072ZM124.82 228.943L120.042 228.635 118.643 224.698 110.453 224.169 108.55 227.893 103.692 227.579 113.525 209.632 117.356 209.88ZM115.16 214.877L112.233 220.648 117.321 220.976ZM143.658 226.9C142.296 227.16 140.919 227.234 139.527 227.12 138.129 227.014 136.961 226.739 136.021 226.295V226.295L136.851 222.655C137.834 223.037 138.854 223.28 139.911 223.383 140.963 223.487 141.999 223.441 143.02 223.246V223.246C144.048 223.05 144.806 222.755 145.294 222.364 145.783 221.978 145.979 221.527 145.88 221.01V221.01C145.791 220.545 145.473 220.212 144.925 220.012 144.378 219.811 143.39 219.698 141.96 219.673V219.673C140.182 219.633 138.764 219.457 137.706 219.143 136.649 218.83 135.86 218.373 135.338 217.774 134.824 217.181 134.473 216.393 134.285 215.411V215.411C134.071 214.292 134.193 213.227 134.652 212.216 135.111 211.213 135.865 210.346 136.912 209.616 137.96 208.887 139.227 208.38 140.713 208.096V208.096C142.015 207.847 143.321 207.79 144.629 207.927 145.93 208.058 146.98 208.352 147.78 208.81V208.81L146.979 212.444C145.105 211.622 143.255 211.385 141.429 211.734V211.734C140.552 211.902 139.878 212.208 139.406 212.651 138.94 213.086 138.759 213.578 138.864 214.128V214.128C138.927 214.455 139.073 214.706 139.303 214.879 139.532 215.045 139.924 215.181 140.48 215.285 141.034 215.382 141.838 215.435 142.892 215.444V215.444C144.611 215.495 145.994 215.682 147.039 216.005 148.086 216.334 148.87 216.795 149.39 217.387 149.918 217.985 150.271 218.749 150.449 219.678V219.678C150.792 221.472 150.369 223.004 149.181 224.276 147.999 225.547 146.158 226.422 143.658 226.9ZM176.787 214.816L164.848 220.41 156.981 203.618 168.921 198.024 170.507 201.41 162.831 205.006 164.323 208.192 171.52 204.821 173.093 208.179 165.897 211.551 167.525 215.027 175.201 211.43ZM192.557 193.189L185.759 185.061 189.225 182.163 201.122 196.386 198.385 198.676 185.084 195.986 191.882 204.114 188.432 207 176.535 192.777 179.242 190.513ZM214.769 179.525C213.99 180.672 213.068 181.697 212.002 182.601 210.939 183.514 209.918 184.145 208.939 184.495V184.495L206.954 181.334C207.918 180.91 208.811 180.36 209.632 179.685 210.45 179.016 211.15 178.251 211.735 177.391V177.391C212.323 176.526 212.651 175.782 212.719 175.16 212.793 174.541 212.612 174.084 212.176 173.788V173.788C211.785 173.522 211.325 173.512 210.796 173.757 210.267 174.002 209.488 174.62 208.459 175.613V175.613C207.173 176.842 206.045 177.72 205.076 178.245 204.106 178.771 203.225 179.006 202.433 178.951 201.65 178.895 200.845 178.585 200.018 178.024V178.024C199.075 177.383 198.409 176.544 198.019 175.505 197.634 174.471 197.554 173.325 197.78 172.068 198.005 170.811 198.543 169.557 199.393 168.306V168.306C200.138 167.209 201.022 166.246 202.044 165.418 203.056 164.591 204.007 164.057 204.897 163.815V163.815L206.899 166.952C204.992 167.695 203.517 168.836 202.472 170.373V170.373C201.97 171.112 201.709 171.805 201.688 172.452 201.666 173.089 201.887 173.565 202.35 173.88V173.88C202.625 174.067 202.906 174.141 203.191 174.101 203.47 174.057 203.843 173.875 204.31 173.556 204.771 173.233 205.377 172.702 206.129 171.964V171.964C207.381 170.784 208.491 169.939 209.459 169.428 210.432 168.921 211.311 168.693 212.098 168.744 212.895 168.794 213.684 169.084 214.467 169.616V169.616C215.977 170.642 216.762 172.025 216.821 173.765 216.883 175.499 216.199 177.419 214.769 179.525ZM229.668 147.565L225.171 159.96 207.74 153.635 212.237 141.241 215.752 142.516 212.86 150.485 216.168 151.685 218.879 144.214 222.365 145.479 219.654 152.95 223.263 154.259 226.154 146.29ZM9.631 116.917C9.631 113.004 12.802 109.833 16.714 109.833 20.626 109.833 23.798 113.004 23.798 116.917 23.798 120.829 20.626 124 16.714 124 12.802 124 9.631 120.829 9.631 116.917ZM220.181 116.917C220.181 113.004 223.353 109.833 227.265 109.833 231.177 109.833 234.348 113.004 234.348 116.917 234.348 120.829 231.177 124 227.265 124 223.353 124 220.181 120.829 220.181 116.917Z" data-fill-palette-color="accent"/></svg></g></svg></g></svg></g></svg><rect width="395.52" height="136.397" fill="none" stroke="none" visibility="hidden"/></g></svg></g></svg>