<svg xmlns="http://www.w3.org/2000/svg" version="1.1" xmlns:xlink="http://www.w3.org/1999/xlink" xmlns:svgjs="http://svgjs.dev/svgjs" width="1000" height="623" viewBox="0 0 1000 623"><g transform="matrix(1,0,0,1,-0.6060606060606233,0.2522267206477409)"><svg viewBox="0 0 396 247" data-background-color="#ffffff" preserveAspectRatio="xMidYMid meet" height="623" width="1000" xmlns="http://www.w3.org/2000/svg" xmlns:xlink="http://www.w3.org/1999/xlink"><g id="tight-bounds" transform="matrix(1,0,0,1,0.2400000000000091,-0.09999999999999432)"><svg viewBox="0 0 395.52 247.2" height="247.2" width="395.52"><g><svg></svg></g><g><svg viewBox="0 0 395.52 247.2" height="247.2" width="395.52"><g transform="matrix(1,0,0,1,75.54432,99.15400715558249)"><svg viewBox="0 0 244.43135999999998 48.89198568883501" height="48.89198568883501" width="244.43135999999998"><g><svg viewBox="0 0 244.43135999999998 48.89198568883501" height="48.89198568883501" width="244.43135999999998"><g><svg viewBox="0 0 244.43135999999998 48.89198568883501" height="48.89198568883501" width="244.43135999999998"><g><svg viewBox="0 0 244.43135999999998 48.89198568883501" height="48.89198568883501" width="244.43135999999998"><g><svg viewBox="0 0 244.43135999999998 48.89198568883501" height="48.89198568883501" width="244.43135999999998"><g><svg viewBox="0 0 244.43135999999998 27.242657733990146" height="27.242657733990146" width="244.43135999999998"><g transform="matrix(1,0,0,1,0,0)"><svg width="244.43135999999998" viewBox="2.1500000953674316 -35.599998474121094 324.7799987792969 36.19999694824219" height="27.242657733990146" data-palette-color="#9c27b0"><path d="M15.35 0.6L15.35 0.6Q11.5 0.6 8.55-0.73 5.6-2.05 3.9-4.53 2.2-7 2.15-10.55L2.15-10.55 8.9-10.55Q9-8.1 10.68-6.43 12.35-4.75 15.3-4.75L15.3-4.75Q17.85-4.75 19.35-5.98 20.85-7.2 20.85-9.25L20.85-9.25Q20.85-11.4 19.53-12.6 18.2-13.8 16-14.55 13.8-15.3 11.3-16.15L11.3-16.15Q7.25-17.55 5.13-19.75 3-21.95 3-25.6L3-25.6Q2.95-28.7 4.48-30.93 6-33.15 8.65-34.38 11.3-35.6 14.75-35.6L14.75-35.6Q18.25-35.6 20.93-34.35 23.6-33.1 25.13-30.85 26.65-28.6 26.75-25.5L26.75-25.5 19.9-25.5Q19.85-27.35 18.48-28.78 17.1-30.2 14.65-30.2L14.65-30.2Q12.55-30.25 11.13-29.18 9.7-28.1 9.7-26.05L9.7-26.05Q9.7-24.3 10.8-23.28 11.9-22.25 13.8-21.55 15.7-20.85 18.15-20.05L18.15-20.05Q20.75-19.15 22.9-17.95 25.05-16.75 26.35-14.78 27.65-12.8 27.65-9.7L27.65-9.7Q27.65-6.95 26.25-4.6 24.85-2.25 22.1-0.83 19.35 0.6 15.35 0.6ZM42.4 0.6L42.4 0.6Q37.75 0.6 35.22-2.3 32.7-5.2 32.7-10.8L32.7-10.8 32.7-24.8 39.05-24.8 39.05-11.4Q39.05-8.2 40.35-6.5 41.65-4.8 44.45-4.8L44.45-4.8Q47.1-4.8 48.82-6.7 50.55-8.6 50.55-12L50.55-12 50.55-24.8 56.95-24.8 56.95 0 51.3 0 50.8-4.2Q49.65-2 47.47-0.7 45.3 0.6 42.4 0.6ZM69.9 0L63.5 0 63.5-24.8 69.15-24.8 69.7-21.45Q70.9-23.25 72.87-24.33 74.84-25.4 77.45-25.4L77.45-25.4Q83.2-25.4 85.59-20.95L85.59-20.95Q86.95-23 89.22-24.2 91.5-25.4 94.2-25.4L94.2-25.4Q99.05-25.4 101.65-22.5 104.25-19.6 104.25-14L104.25-14 104.25 0 97.84 0 97.84-13.4Q97.84-16.6 96.62-18.3 95.4-20 92.84-20L92.84-20Q90.25-20 88.67-18.1 87.09-16.2 87.09-12.8L87.09-12.8 87.09 0 80.7 0 80.7-13.4Q80.7-16.6 79.45-18.3 78.2-20 75.59-20L75.59-20Q73.05-20 71.47-18.1 69.9-16.2 69.9-12.8L69.9-12.8 69.9 0ZM116.74 0L110.34 0 110.34-24.8 115.99-24.8 116.54-21.45Q117.74-23.25 119.72-24.33 121.69-25.4 124.29-25.4L124.29-25.4Q130.04-25.4 132.44-20.95L132.44-20.95Q133.79-23 136.07-24.2 138.34-25.4 141.04-25.4L141.04-25.4Q145.89-25.4 148.49-22.5 151.09-19.6 151.09-14L151.09-14 151.09 0 144.69 0 144.69-13.4Q144.69-16.6 143.47-18.3 142.24-20 139.69-20L139.69-20Q137.09-20 135.52-18.1 133.94-16.2 133.94-12.8L133.94-12.8 133.94 0 127.54 0 127.54-13.4Q127.54-16.6 126.29-18.3 125.04-20 122.44-20L122.44-20Q119.89-20 118.32-18.1 116.74-16.2 116.74-12.8L116.74-12.8 116.74 0ZM165.74 0.6L165.74 0.6Q162.54 0.6 160.49-0.43 158.44-1.45 157.44-3.15 156.44-4.85 156.44-6.9L156.44-6.9Q156.44-10.35 159.14-12.5 161.84-14.65 167.24-14.65L167.24-14.65 173.54-14.65 173.54-15.25Q173.54-17.8 172.09-19 170.64-20.2 168.49-20.2L168.49-20.2Q166.54-20.2 165.09-19.28 163.64-18.35 163.29-16.55L163.29-16.55 157.04-16.55Q157.29-19.25 158.87-21.25 160.44-23.25 162.94-24.33 165.44-25.4 168.54-25.4L168.54-25.4Q173.84-25.4 176.89-22.75 179.94-20.1 179.94-15.25L179.94-15.25 179.94 0 174.49 0 173.89-4Q172.79-2 170.81-0.7 168.84 0.6 165.74 0.6ZM167.19-4.4L167.19-4.4Q169.94-4.4 171.47-6.2 172.99-8 173.39-10.65L173.39-10.65 167.94-10.65Q165.39-10.65 164.29-9.73 163.19-8.8 163.19-7.45L163.19-7.45Q163.19-6 164.29-5.2 165.39-4.4 167.19-4.4ZM198.14 0.6L198.14 0.6Q194.29 0.6 191.34-0.73 188.39-2.05 186.69-4.53 184.99-7 184.94-10.55L184.94-10.55 191.69-10.55Q191.79-8.1 193.46-6.43 195.14-4.75 198.09-4.75L198.09-4.75Q200.64-4.75 202.14-5.98 203.64-7.2 203.64-9.25L203.64-9.25Q203.64-11.4 202.31-12.6 200.99-13.8 198.79-14.55 196.59-15.3 194.09-16.15L194.09-16.15Q190.04-17.55 187.91-19.75 185.79-21.95 185.79-25.6L185.79-25.6Q185.74-28.7 187.26-30.93 188.79-33.15 191.44-34.38 194.09-35.6 197.54-35.6L197.54-35.6Q201.04-35.6 203.71-34.35 206.39-33.1 207.91-30.85 209.44-28.6 209.54-25.5L209.54-25.5 202.69-25.5Q202.64-27.35 201.26-28.78 199.89-30.2 197.44-30.2L197.44-30.2Q195.34-30.25 193.91-29.18 192.49-28.1 192.49-26.05L192.49-26.05Q192.49-24.3 193.59-23.28 194.69-22.25 196.59-21.55 198.49-20.85 200.94-20.05L200.94-20.05Q203.54-19.15 205.69-17.95 207.84-16.75 209.14-14.78 210.44-12.8 210.44-9.7L210.44-9.7Q210.44-6.95 209.04-4.6 207.64-2.25 204.89-0.83 202.14 0.6 198.14 0.6ZM227.94 0.6L227.94 0.6Q224.19 0.6 221.28-1 218.38-2.6 216.73-5.5 215.08-8.4 215.08-12.2L215.08-12.2Q215.08-16.05 216.71-19.05 218.33-22.05 221.21-23.73 224.08-25.4 227.98-25.4L227.98-25.4Q231.63-25.4 234.44-23.8 237.23-22.2 238.81-19.43 240.38-16.65 240.38-13.25L240.38-13.25Q240.38-12.7 240.36-12.1 240.33-11.5 240.28-10.85L240.28-10.85 221.44-10.85Q221.63-7.95 223.46-6.3 225.28-4.65 227.88-4.65L227.88-4.65Q229.83-4.65 231.16-5.53 232.48-6.4 233.13-7.8L233.13-7.8 239.63-7.8Q238.94-5.45 237.31-3.53 235.69-1.6 233.31-0.5 230.94 0.6 227.94 0.6ZM227.98-20.2L227.98-20.2Q225.63-20.2 223.83-18.88 222.03-17.55 221.53-14.85L221.53-14.85 233.88-14.85Q233.73-17.3 232.08-18.75 230.44-20.2 227.98-20.2ZM252.18 0L245.78 0 245.78-24.8 251.43-24.8 251.93-20.6Q253.08-22.8 255.26-24.1 257.43-25.4 260.38-25.4L260.38-25.4Q264.98-25.4 267.53-22.5 270.08-19.6 270.08-14L270.08-14 270.08 0 263.68 0 263.68-13.4Q263.68-16.6 262.38-18.3 261.08-20 258.33-20L258.33-20Q255.63-20 253.91-18.1 252.18-16.2 252.18-12.8L252.18-12.8 252.18 0ZM286.43 0.6L286.43 0.6Q283.13 0.6 280.63-0.48 278.13-1.55 276.63-3.45 275.13-5.35 274.83-7.85L274.83-7.85 281.28-7.85Q281.58-6.4 282.91-5.38 284.23-4.35 286.33-4.35L286.33-4.35Q288.43-4.35 289.41-5.2 290.38-6.05 290.38-7.15L290.38-7.15Q290.38-8.75 288.98-9.33 287.58-9.9 285.08-10.45L285.08-10.45Q283.48-10.8 281.83-11.3 280.18-11.8 278.81-12.58 277.43-13.35 276.58-14.58 275.73-15.8 275.73-17.6L275.73-17.6Q275.73-20.9 278.36-23.15 280.98-25.4 285.73-25.4L285.73-25.4Q290.13-25.4 292.75-23.35 295.38-21.3 295.88-17.7L295.88-17.7 289.83-17.7Q289.28-20.45 285.68-20.45L285.68-20.45Q283.88-20.45 282.91-19.75 281.93-19.05 281.93-18L281.93-18Q281.93-16.9 283.38-16.25 284.83-15.6 287.23-15.05L287.23-15.05Q289.83-14.45 292-13.73 294.18-13 295.48-11.58 296.78-10.15 296.78-7.5L296.78-7.5Q296.83-5.2 295.58-3.35 294.33-1.5 291.98-0.45 289.63 0.6 286.43 0.6ZM314.48 0.6L314.48 0.6Q310.73 0.6 307.83-1 304.93-2.6 303.28-5.5 301.63-8.4 301.63-12.2L301.63-12.2Q301.63-16.05 303.25-19.05 304.88-22.05 307.75-23.73 310.63-25.4 314.53-25.4L314.53-25.4Q318.18-25.4 320.98-23.8 323.78-22.2 325.35-19.43 326.93-16.65 326.93-13.25L326.93-13.25Q326.93-12.7 326.9-12.1 326.88-11.5 326.83-10.85L326.83-10.85 307.98-10.85Q308.18-7.95 310-6.3 311.83-4.65 314.43-4.65L314.43-4.65Q316.38-4.65 317.7-5.53 319.03-6.4 319.68-7.8L319.68-7.8 326.18-7.8Q325.48-5.45 323.85-3.53 322.23-1.6 319.85-0.5 317.48 0.6 314.48 0.6ZM314.53-20.2L314.53-20.2Q312.18-20.2 310.38-18.88 308.58-17.55 308.08-14.85L308.08-14.85 320.43-14.85Q320.28-17.3 318.63-18.75 316.98-20.2 314.53-20.2Z" opacity="1" transform="matrix(1,0,0,1,0,0)" fill="#9c27b0" class="undefined-text-0" data-fill-palette-color="primary" id="text-0"></path></svg></g></svg></g><g transform="matrix(1,0,0,1,0,33.673995401199605)"><svg viewBox="0 0 244.43135999999998 15.217990287635407" height="15.217990287635407" width="244.43135999999998"><g transform="matrix(1,0,0,1,0,0)"><svg width="244.43135999999998" viewBox="1.75 -37.5 803.02001953125 50" height="15.217990287635407" data-palette-color="#777777"><path d="M1.75 0L26.8 0 26.8-7.7 24.3-7.7 24.3-2.5 7.75-2.5 7.75-16.4 24.15-16.4 24.15-18.9 7.75-18.9 7.75-32.5 23.6-32.5 23.6-27.3 26.1-27.3 26.1-35 1.75-35 1.75-32.5 5.15-32.5 5.15-2.5 1.75-2.5 1.75 0ZM30.3 0L39.7 0 39.7-2.5 37.25-2.5Q38.2-3.75 39.1-5.03 40-6.3 40.95-7.6L40.95-7.6Q41.85-6.3 42.77-5.05 43.7-3.8 44.7-2.5L44.7-2.5 42.2-2.5 42.2 0 52.25 0 52.25-2.5 47.95-2.5Q46.7-4.1 45.52-5.7 44.35-7.3 43.2-8.95L43.2-8.95 48.45-16.25 52.25-16.25 52.25-18.75 42.85-18.75 42.85-16.25 45.35-16.25 41.55-10.95 37.7-16.25 40.3-16.25 40.3-18.75 30.3-18.75 30.3-16.25 34.55-16.25Q35.75-14.6 36.95-13 38.15-11.4 39.35-9.75L39.35-9.75Q38-7.9 36.7-6.1 35.4-4.3 34.05-2.5L34.05-2.5 30.3-2.5 30.3 0ZM56.2 10L56.2 12.5 66.2 12.5 66.2 10 62.15 10 62.15-1.9Q62.15-2.25 62.12-2.65 62.1-3.05 62.05-3.45L62.05-3.45Q62.35-2.75 62.92-2.13 63.5-1.5 64.5-0.9L64.5-0.9Q65.45-0.3 66.7 0.08 67.95 0.45 69.4 0.45L69.4 0.45Q71.45 0.45 73.27-0.33 75.09-1.1 76.45-2.45L76.45-2.45Q77.75-3.8 78.52-5.58 79.3-7.35 79.3-9.4L79.3-9.4Q79.3-11.4 78.52-13.18 77.75-14.95 76.45-16.3L76.45-16.3Q75.09-17.6 73.27-18.38 71.45-19.15 69.4-19.15L69.4-19.15Q66.5-19.15 64.52-17.8 62.55-16.45 61.8-14.8L61.8-14.8Q61.8-15.75 61.72-16.75 61.65-17.75 61.65-18.75L61.65-18.75 55.75-18.75 55.75-16.25 59.5-16.25 59.5 10 56.2 10ZM69.4-16.6L69.4-16.6Q70.84-16.6 72.15-16.07 73.45-15.55 74.4-14.7L74.4-14.7Q75.45-13.7 76.05-12.35 76.65-11 76.65-9.4L76.65-9.4Q76.65-7.8 76.07-6.43 75.5-5.05 74.45-4.1L74.45-4.1Q73.45-3.15 72.17-2.63 70.9-2.1 69.4-2.1L69.4-2.1Q67.9-2.1 66.59-2.65 65.3-3.2 64.3-4.1L64.3-4.1Q63.25-5.1 62.67-6.45 62.1-7.8 62.1-9.4L62.1-9.4Q62.1-10.85 62.65-12.18 63.2-13.5 64.15-14.5L64.15-14.5Q65.15-15.45 66.47-16.03 67.8-16.6 69.4-16.6ZM92.64-16.65L92.64-16.65Q94.34-16.65 95.74-15.7 97.14-14.75 97.99-13.25L97.99-13.25Q94.84-12.05 91.74-10.85 88.64-9.65 85.54-8.45L85.54-8.45Q85.29-9.95 85.69-11.4 86.09-12.85 86.99-14L86.99-14Q87.94-15.2 89.42-15.93 90.89-16.65 92.64-16.65ZM99.14-2.25L99.14-2.25 97.54-4.15Q96.59-3.2 95.34-2.68 94.09-2.15 92.64-2.15L92.64-2.15Q90.49-2.15 88.82-3.2 87.14-4.25 86.29-6L86.29-6Q90.04-7.45 93.79-8.9 97.54-10.35 101.29-11.8L101.29-11.8Q100.84-13.4 100.02-14.75 99.19-16.1 98.14-17.05L98.14-17.05Q96.99-18.05 95.59-18.63 94.19-19.2 92.64-19.2L92.64-19.2Q90.59-19.2 88.79-18.43 86.99-17.65 85.69-16.35L85.69-16.35Q84.34-15 83.57-13.2 82.79-11.4 82.79-9.4L82.79-9.4Q82.79-7.35 83.57-5.58 84.34-3.8 85.69-2.45L85.69-2.45Q86.99-1.15 88.79-0.38 90.59 0.4 92.64 0.4L92.64 0.4Q94.59 0.4 96.24-0.3 97.89-1 99.14-2.25ZM104.94 0L114.94 0 114.94-2.5 111.39-2.5 111.39-9.95Q111.39-11.5 112.07-12.8 112.74-14.1 113.89-14.95L113.89-14.95Q114.84-15.7 116.09-16.13 117.34-16.55 118.79-16.6L118.79-16.6 118.94-19.15Q117.89-19.15 116.82-18.8 115.74-18.45 114.69-17.75L114.69-17.75Q113.64-17.1 112.74-16.13 111.84-15.15 111.24-13.9L111.24-13.9Q111.19-14.85 111.19-15 111.19-15.15 111.14-16.15L111.14-16.15 110.99-18.75 105.29-18.75 105.29-16.25 108.79-16.25 108.79-2.5 104.94-2.5 104.94 0ZM122.44 0L132.44 0 132.44-2.5 128.79-2.5 128.79-18.75 122.44-18.75 122.44-16.25 126.19-16.25 126.19-2.5 122.44-2.5 122.44 0ZM129.39-25.55L129.39-25.55Q129.39-26.35 128.81-26.9 128.24-27.45 127.54-27.45L127.54-27.45Q126.84-27.45 126.26-26.9 125.69-26.35 125.69-25.55L125.69-25.55Q125.69-24.75 126.26-24.2 126.84-23.65 127.54-23.65L127.54-23.65Q128.24-23.65 128.81-24.2 129.39-24.75 129.39-25.55ZM145.78-16.65L145.78-16.65Q147.49-16.65 148.88-15.7 150.28-14.75 151.13-13.25L151.13-13.25Q147.99-12.05 144.88-10.85 141.78-9.65 138.69-8.45L138.69-8.45Q138.44-9.95 138.84-11.4 139.24-12.85 140.13-14L140.13-14Q141.09-15.2 142.56-15.93 144.03-16.65 145.78-16.65ZM152.28-2.25L152.28-2.25 150.69-4.15Q149.74-3.2 148.49-2.68 147.24-2.15 145.78-2.15L145.78-2.15Q143.63-2.15 141.96-3.2 140.28-4.25 139.44-6L139.44-6Q143.19-7.45 146.94-8.9 150.69-10.35 154.44-11.8L154.44-11.8Q153.99-13.4 153.16-14.75 152.34-16.1 151.28-17.05L151.28-17.05Q150.13-18.05 148.74-18.63 147.34-19.2 145.78-19.2L145.78-19.2Q143.74-19.2 141.94-18.43 140.13-17.65 138.84-16.35L138.84-16.35Q137.49-15 136.71-13.2 135.94-11.4 135.94-9.4L135.94-9.4Q135.94-7.35 136.71-5.58 137.49-3.8 138.84-2.45L138.84-2.45Q140.13-1.15 141.94-0.38 143.74 0.4 145.78 0.4L145.78 0.4Q147.74 0.4 149.38-0.3 151.03-1 152.28-2.25ZM158.08 0L168.08 0 168.08-2.5 164.53-2.5 164.53-9.95Q164.53-11.4 165.16-12.63 165.78-13.85 166.78-14.75L166.78-14.75Q167.78-15.6 169.13-16.1 170.48-16.6 171.93-16.6L171.93-16.6Q173.98-16.5 175.01-15.35 176.03-14.2 176.13-12.65L176.13-12.65 176.13-2.5 172.28-2.5 172.28 0 182.28 0 182.28-2.5 178.73-2.5 178.73-13.55Q178.63-16.05 177.03-17.6 175.43-19.15 172.58-19.15L172.58-19.15Q169.83-19.15 167.61-17.73 165.38-16.3 164.38-13.9L164.38-13.9Q164.33-14.85 164.28-15.6 164.23-16.35 164.18-17.3L164.18-17.3 164.13-18.75 158.43-18.75 158.43-16.25 161.93-16.25 161.93-2.5 158.08-2.5 158.08 0ZM201.83-1.75L201.83-1.75 200.23-3.75Q199.28-2.95 198.13-2.55 196.98-2.15 195.63-2.15L195.63-2.15Q194.13-2.15 192.81-2.7 191.48-3.25 190.53-4.2L190.53-4.2Q189.48-5.2 188.93-6.53 188.38-7.85 188.38-9.4L188.38-9.4Q188.38-10.95 188.96-12.3 189.53-13.65 190.58-14.65L190.58-14.65Q191.53-15.6 192.83-16.13 194.13-16.65 195.63-16.65L195.63-16.65Q196.73-16.65 197.73-16.35 198.73-16.05 199.53-15.5L199.53-15.5 199.53-11.9 201.93-11.9 201.93-17.05Q200.63-18.05 199.03-18.63 197.43-19.2 195.63-19.2L195.63-19.2Q193.53-19.2 191.76-18.43 189.98-17.65 188.68-16.3L188.68-16.3Q187.28-15 186.53-13.2 185.78-11.4 185.78-9.4L185.78-9.4Q185.78-7.35 186.53-5.58 187.28-3.8 188.68-2.5L188.68-2.5Q189.98-1.15 191.76-0.38 193.53 0.4 195.63 0.4L195.63 0.4Q197.43 0.4 198.98-0.18 200.53-0.75 201.83-1.75ZM215.28-16.65L215.28-16.65Q216.98-16.65 218.38-15.7 219.78-14.75 220.63-13.25L220.63-13.25Q217.48-12.05 214.38-10.85 211.28-9.65 208.18-8.45L208.18-8.45Q207.93-9.95 208.33-11.4 208.73-12.85 209.63-14L209.63-14Q210.58-15.2 212.05-15.93 213.53-16.65 215.28-16.65ZM221.78-2.25L221.78-2.25 220.18-4.15Q219.23-3.2 217.98-2.68 216.73-2.15 215.28-2.15L215.28-2.15Q213.13-2.15 211.45-3.2 209.78-4.25 208.93-6L208.93-6Q212.68-7.45 216.43-8.9 220.18-10.35 223.93-11.8L223.93-11.8Q223.48-13.4 222.65-14.75 221.83-16.1 220.78-17.05L220.78-17.05Q219.63-18.05 218.23-18.63 216.83-19.2 215.28-19.2L215.28-19.2Q213.23-19.2 211.43-18.43 209.63-17.65 208.33-16.35L208.33-16.35Q206.98-15 206.2-13.2 205.43-11.4 205.43-9.4L205.43-9.4Q205.43-7.35 206.2-5.58 206.98-3.8 208.33-2.45L208.33-2.45Q209.63-1.15 211.43-0.38 213.23 0.4 215.28 0.4L215.28 0.4Q217.23 0.4 218.88-0.3 220.53-1 221.78-2.25ZM260.52-2.2L260.52-2.2Q261.92-3.5 262.75-5.3 263.57-7.1 263.57-9.35L263.57-9.35Q263.57-12.8 262.22-14.78 260.87-16.75 258.77-17.75L258.77-17.75Q256.57-18.8 254.12-19.45 251.67-20.1 249.77-21L249.77-21Q248.22-21.7 247.25-22.85 246.27-24 246.27-26.05L246.27-26.05Q246.27-27.35 246.65-28.53 247.02-29.7 247.82-30.65L247.82-30.65Q248.67-31.6 249.92-32.15 251.17-32.7 252.92-32.7L252.92-32.7Q254.82-32.7 256.27-32.3 257.72-31.9 258.67-31.35L258.67-31.35 258.67-27.3 261.17-27.3 261.17-32.55Q260.17-33.4 259.05-33.93 257.92-34.45 256.87-34.75L256.87-34.75Q255.82-35 254.8-35.1 253.77-35.2 252.92-35.2L252.92-35.2Q250.32-35.2 248.55-34.35 246.77-33.5 245.67-32.15L245.67-32.15Q244.57-30.8 244.07-29.15 243.57-27.5 243.67-25.85L243.67-25.85Q243.72-23.2 244.8-21.7 245.87-20.2 247.47-19.3L247.47-19.3Q249.07-18.4 250.97-17.85 252.87-17.3 254.62-16.7L254.62-16.7Q256.02-16.15 257.22-15.55 258.42-14.95 259.37-13.95L259.37-13.95Q260.12-13.15 260.55-11.98 260.97-10.8 260.97-9.25L260.97-9.25Q260.97-7.55 260.3-6.23 259.62-4.9 258.52-3.95L258.52-3.95Q257.32-3.05 255.87-2.58 254.42-2.1 252.82-2.1L252.82-2.1Q250.17-2.1 248.22-2.93 246.27-3.75 244.92-4.95L244.92-4.95 244.92-9.45 242.42-9.45 242.42-4Q242.97-3.25 244-2.48 245.02-1.7 246.37-1.1L246.37-1.1Q247.72-0.45 249.42-0.03 251.12 0.4 253.07 0.4L253.07 0.4Q255.22 0.4 257.15-0.28 259.07-0.95 260.52-2.2ZM266.47 0L276.47 0 276.47-2.5 272.92-2.5 272.92-9.95Q272.92-11.4 273.55-12.63 274.17-13.85 275.17-14.75L275.17-14.75Q276.17-15.6 277.52-16.1 278.87-16.6 280.32-16.6L280.32-16.6Q282.37-16.5 283.4-15.35 284.42-14.2 284.52-12.65L284.52-12.65 284.52-2.5 280.67-2.5 280.67 0 290.67 0 290.67-2.5 287.12-2.5 287.12-10.1Q287.17-11.5 287.8-12.7 288.42-13.9 289.42-14.75L289.42-14.75Q290.42-15.6 291.75-16.1 293.07-16.6 294.52-16.6L294.52-16.6Q296.57-16.5 297.6-15.35 298.62-14.2 298.72-12.65L298.72-12.65 298.72-2.5 294.87-2.5 294.87 0 304.92 0 304.92-2.5 301.32-2.5 301.32-13.55Q301.22-16.05 299.62-17.6 298.02-19.15 295.17-19.15L295.17-19.15Q292.42-19.1 290.3-17.78 288.17-16.45 287.07-14.15L287.07-14.15Q286.82-16.4 285.2-17.78 283.57-19.15 280.97-19.15L280.97-19.15Q278.12-19.1 275.97-17.7 273.82-16.3 272.77-13.9L272.77-13.9Q272.72-14.85 272.67-15.6 272.62-16.35 272.57-17.3L272.57-17.3 272.52-18.75 266.82-18.75 266.82-16.25 270.32-16.25 270.32-2.5 266.47-2.5 266.47 0ZM325.87 0L331.92 0 331.92-2.5 328.22-2.5 328.22-18.75 326.07-18.75Q326.02-17.75 325.97-16.78 325.92-15.8 325.87-14.85L325.87-14.85Q325.17-16.55 323.19-17.88 321.22-19.2 318.32-19.2L318.32-19.2Q316.22-19.2 314.42-18.4 312.62-17.6 311.32-16.25L311.32-16.25Q309.97-14.95 309.19-13.15 308.42-11.35 308.42-9.35L308.42-9.35Q308.42-7.35 309.19-5.58 309.97-3.8 311.32-2.5L311.32-2.5Q312.62-1.15 314.42-0.38 316.22 0.4 318.32 0.4L318.32 0.4Q319.82 0.4 321.09 0 322.37-0.4 323.37-1L323.37-1Q324.32-1.6 324.97-2.33 325.62-3.05 325.92-3.75L325.92-3.75Q325.92-3.2 325.89-2.75 325.87-2.3 325.87-1.75L325.87-1.75 325.87 0ZM318.32-16.65L318.32-16.65Q319.82-16.65 321.12-16.1 322.42-15.55 323.47-14.6L323.47-14.6Q324.47-13.65 325.04-12.3 325.62-10.95 325.62-9.4L325.62-9.4Q325.62-7.85 325.04-6.5 324.47-5.15 323.42-4.2L323.42-4.2Q322.42-3.25 321.12-2.7 319.82-2.15 318.32-2.15L318.32-2.15Q316.87-2.15 315.62-2.65 314.37-3.15 313.42-4L313.42-4Q312.32-5 311.69-6.4 311.07-7.8 311.07-9.4L311.07-9.4Q311.07-10.9 311.57-12.2 312.07-13.5 313.02-14.45L313.02-14.45Q313.97-15.5 315.34-16.07 316.72-16.65 318.32-16.65ZM335.42 0L345.42 0 345.42-2.5 341.87-2.5 341.87-9.95Q341.87-11.5 342.54-12.8 343.22-14.1 344.37-14.95L344.37-14.95Q345.31-15.7 346.56-16.13 347.81-16.55 349.27-16.6L349.27-16.6 349.42-19.15Q348.37-19.15 347.29-18.8 346.22-18.45 345.17-17.75L345.17-17.75Q344.12-17.1 343.22-16.13 342.31-15.15 341.72-13.9L341.72-13.9Q341.67-14.85 341.67-15 341.67-15.15 341.62-16.15L341.62-16.15 341.47-18.75 335.77-18.75 335.77-16.25 339.27-16.25 339.27-2.5 335.42-2.5 335.42 0ZM357.21 0L363.86 0 363.86-2.5 359.81-2.5 359.81-16.2 365.36-16.2 365.36-18.75 359.81-18.75 359.81-30.95 357.21-30.95 357.21-18.75 352.91-18.75 352.91-16.2 357.21-16.2 357.21 0ZM378.71-16.65L378.71-16.65Q380.41-16.65 381.81-15.7 383.21-14.75 384.06-13.25L384.06-13.25Q380.91-12.05 377.81-10.85 374.71-9.65 371.61-8.45L371.61-8.45Q371.36-9.95 371.76-11.4 372.16-12.85 373.06-14L373.06-14Q374.01-15.2 375.49-15.93 376.96-16.65 378.71-16.65ZM385.21-2.25L385.21-2.25 383.61-4.15Q382.66-3.2 381.41-2.68 380.16-2.15 378.71-2.15L378.71-2.15Q376.56-2.15 374.88-3.2 373.21-4.25 372.36-6L372.36-6Q376.11-7.45 379.86-8.9 383.61-10.35 387.36-11.8L387.36-11.8Q386.91-13.4 386.09-14.75 385.26-16.1 384.21-17.05L384.21-17.05Q383.06-18.05 381.66-18.63 380.26-19.2 378.71-19.2L378.71-19.2Q376.66-19.2 374.86-18.43 373.06-17.65 371.76-16.35L371.76-16.35Q370.41-15 369.63-13.2 368.86-11.4 368.86-9.4L368.86-9.4Q368.86-7.35 369.63-5.58 370.41-3.8 371.76-2.45L371.76-2.45Q373.06-1.15 374.86-0.38 376.66 0.4 378.71 0.4L378.71 0.4Q380.66 0.4 382.31-0.3 383.96-1 385.21-2.25ZM391.01 0L401.01 0 401.01-2.5 397.46-2.5 397.46-9.95Q397.46-11.5 398.13-12.8 398.81-14.1 399.96-14.95L399.96-14.95Q400.91-15.7 402.16-16.13 403.41-16.55 404.86-16.6L404.86-16.6 405.01-19.15Q403.96-19.15 402.88-18.8 401.81-18.45 400.76-17.75L400.76-17.75Q399.71-17.1 398.81-16.13 397.91-15.15 397.31-13.9L397.31-13.9Q397.26-14.85 397.26-15 397.26-15.15 397.21-16.15L397.21-16.15 397.06-18.75 391.36-18.75 391.36-16.25 394.86-16.25 394.86-2.5 391.01-2.5 391.01 0ZM423.5 0L434.05 0 434.05-2.5 430.25-2.5 430.25-27.45Q430.25-27.9 430.2-28.38 430.15-28.85 430.1-29.3L430.1-29.3Q430.4-28.85 430.6-28.6 430.8-28.35 431.1-27.95L431.1-27.95 445.95-8.55 460.3-27.3Q460.7-27.85 461.03-28.3 461.35-28.75 461.75-29.3L461.75-29.3Q461.7-28.75 461.68-28.38 461.65-28 461.65-27.45L461.65-27.45 461.65-2.5 457.9-2.5 457.9 0 468.45 0 468.45-2.5 464.25-2.5 464.25-32.5 468.35-32.5 468.35-35 463-35Q458.7-29.45 454.48-23.88 450.25-18.3 445.95-12.75L445.95-12.75Q442.05-17.75 437.63-23.53 433.2-29.3 428.85-35L428.85-35 423.5-35 423.5-32.5 427.65-32.5 427.65-2.5 423.5-2.5 423.5 0ZM481.8-16.65L481.8-16.65Q483.5-16.65 484.9-15.7 486.3-14.75 487.15-13.25L487.15-13.25Q484-12.05 480.9-10.85 477.8-9.65 474.7-8.45L474.7-8.45Q474.45-9.95 474.85-11.4 475.25-12.85 476.15-14L476.15-14Q477.1-15.2 478.57-15.93 480.05-16.65 481.8-16.65ZM488.3-2.25L488.3-2.25 486.7-4.15Q485.75-3.2 484.5-2.68 483.25-2.15 481.8-2.15L481.8-2.15Q479.65-2.15 477.97-3.2 476.3-4.25 475.45-6L475.45-6Q479.2-7.45 482.95-8.9 486.7-10.35 490.45-11.8L490.45-11.8Q490-13.4 489.18-14.75 488.35-16.1 487.3-17.05L487.3-17.05Q486.15-18.05 484.75-18.63 483.35-19.2 481.8-19.2L481.8-19.2Q479.75-19.2 477.95-18.43 476.15-17.65 474.85-16.35L474.85-16.35Q473.5-15 472.72-13.2 471.95-11.4 471.95-9.4L471.95-9.4Q471.95-7.35 472.72-5.58 473.5-3.8 474.85-2.45L474.85-2.45Q476.15-1.15 477.95-0.38 479.75 0.4 481.8 0.4L481.8 0.4Q483.75 0.4 485.4-0.3 487.05-1 488.3-2.25ZM511.55 0L517.6 0 517.6-2.5 513.9-2.5 513.9-37.5 507.8-37.5 507.8-35 511.3-35 511.3-18.9Q511.3-17.85 511.3-17.05 511.3-16.25 511.35-15.15L511.35-15.15Q511.05-15.85 510.47-16.5 509.9-17.15 508.9-17.8L508.9-17.8Q507.9-18.4 506.65-18.8 505.4-19.2 504-19.2L504-19.2Q501.9-19.2 500.1-18.43 498.3-17.65 497-16.3L497-16.3Q495.65-14.95 494.87-13.18 494.1-11.4 494.1-9.4L494.1-9.4Q494.1-7.4 494.87-5.6 495.65-3.8 497-2.5L497-2.5Q498.3-1.15 500.1-0.38 501.9 0.4 504 0.4L504 0.4Q505.5 0.4 506.77 0 508.05-0.4 509.05-1L509.05-1Q510-1.6 510.65-2.33 511.3-3.05 511.6-3.75L511.6-3.75Q511.6-3.2 511.57-2.75 511.55-2.3 511.55-1.75L511.55-1.75 511.55 0ZM504-16.65L504-16.65Q505.45-16.65 506.75-16.13 508.05-15.6 509-14.75L509-14.75Q510.05-13.75 510.67-12.38 511.3-11 511.3-9.4L511.3-9.4Q511.3-7.85 510.7-6.48 510.1-5.1 509.05-4.15L509.05-4.15Q508.05-3.2 506.77-2.68 505.5-2.15 504-2.15L504-2.15Q502.5-2.15 501.2-2.68 499.9-3.2 498.95-4.15L498.95-4.15Q497.9-5.1 497.32-6.48 496.75-7.85 496.75-9.4L496.75-9.4Q496.75-10.9 497.27-12.23 497.8-13.55 498.75-14.55L498.75-14.55Q499.75-15.5 501.07-16.07 502.4-16.65 504-16.65ZM521.09 0L531.09 0 531.09-2.5 527.44-2.5 527.44-18.75 521.09-18.75 521.09-16.25 524.84-16.25 524.84-2.5 521.09-2.5 521.09 0ZM528.04-25.55L528.04-25.55Q528.04-26.35 527.47-26.9 526.89-27.45 526.19-27.45L526.19-27.45Q525.49-27.45 524.92-26.9 524.34-26.35 524.34-25.55L524.34-25.55Q524.34-24.75 524.92-24.2 525.49-23.65 526.19-23.65L526.19-23.65Q526.89-23.65 527.47-24.2 528.04-24.75 528.04-25.55ZM552.04 0L558.09 0 558.09-2.5 554.39-2.5 554.39-18.75 552.24-18.75Q552.19-17.75 552.14-16.78 552.09-15.8 552.04-14.85L552.04-14.85Q551.34-16.55 549.37-17.88 547.39-19.2 544.49-19.2L544.49-19.2Q542.39-19.2 540.59-18.4 538.79-17.6 537.49-16.25L537.49-16.25Q536.14-14.95 535.37-13.15 534.59-11.35 534.59-9.35L534.59-9.35Q534.59-7.35 535.37-5.58 536.14-3.8 537.49-2.5L537.49-2.5Q538.79-1.15 540.59-0.38 542.39 0.4 544.49 0.4L544.49 0.4Q545.99 0.4 547.27 0 548.54-0.4 549.54-1L549.54-1Q550.49-1.6 551.14-2.33 551.79-3.05 552.09-3.75L552.09-3.75Q552.09-3.2 552.07-2.75 552.04-2.3 552.04-1.75L552.04-1.75 552.04 0ZM544.49-16.65L544.49-16.65Q545.99-16.65 547.29-16.1 548.59-15.55 549.64-14.6L549.64-14.6Q550.64-13.65 551.22-12.3 551.79-10.95 551.79-9.4L551.79-9.4Q551.79-7.85 551.22-6.5 550.64-5.15 549.59-4.2L549.59-4.2Q548.59-3.25 547.29-2.7 545.99-2.15 544.49-2.15L544.49-2.15Q543.04-2.15 541.79-2.65 540.54-3.15 539.59-4L539.59-4Q538.49-5 537.87-6.4 537.24-7.8 537.24-9.4L537.24-9.4Q537.24-10.9 537.74-12.2 538.24-13.5 539.19-14.45L539.19-14.45Q540.14-15.5 541.52-16.07 542.89-16.65 544.49-16.65ZM594.54-2.2L594.54-2.2Q595.94-3.5 596.76-5.3 597.59-7.1 597.59-9.35L597.59-9.35Q597.59-12.8 596.24-14.78 594.89-16.75 592.79-17.75L592.79-17.75Q590.59-18.8 588.14-19.45 585.69-20.1 583.79-21L583.79-21Q582.24-21.7 581.26-22.85 580.29-24 580.29-26.05L580.29-26.05Q580.29-27.35 580.66-28.53 581.04-29.7 581.84-30.65L581.84-30.65Q582.69-31.6 583.94-32.15 585.19-32.7 586.94-32.7L586.94-32.7Q588.84-32.7 590.29-32.3 591.74-31.9 592.69-31.35L592.69-31.35 592.69-27.3 595.19-27.3 595.19-32.55Q594.19-33.4 593.06-33.93 591.94-34.45 590.89-34.75L590.89-34.75Q589.84-35 588.81-35.1 587.79-35.2 586.94-35.2L586.94-35.2Q584.34-35.2 582.56-34.35 580.79-33.5 579.69-32.15L579.69-32.15Q578.59-30.8 578.09-29.15 577.59-27.5 577.69-25.85L577.69-25.85Q577.74-23.2 578.81-21.7 579.89-20.2 581.49-19.3L581.49-19.3Q583.09-18.4 584.99-17.85 586.89-17.3 588.64-16.7L588.64-16.7Q590.04-16.15 591.24-15.55 592.44-14.95 593.39-13.95L593.39-13.95Q594.14-13.15 594.56-11.98 594.99-10.8 594.99-9.25L594.99-9.25Q594.99-7.55 594.31-6.23 593.64-4.9 592.54-3.95L592.54-3.95Q591.34-3.05 589.89-2.58 588.44-2.1 586.84-2.1L586.84-2.1Q584.19-2.1 582.24-2.93 580.29-3.75 578.94-4.95L578.94-4.95 578.94-9.45 576.44-9.45 576.44-4Q576.99-3.25 578.01-2.48 579.04-1.7 580.39-1.1L580.39-1.1Q581.74-0.45 583.44-0.03 585.14 0.4 587.09 0.4L587.09 0.4Q589.24 0.4 591.16-0.28 593.09-0.95 594.54-2.2ZM618.43-4.85L618.43-4.85 618.38-2.6 618.43 0 624.33 0 624.33-2.25 620.88-2.25 620.88-18.75 614.68-18.75 614.68-16.25 618.28-16.25 618.28-8.8Q618.28-7.35 617.66-6.13 617.03-4.9 616.03-4.05L616.03-4.05Q615.03-3.15 613.68-2.65 612.33-2.15 610.88-2.15L610.88-2.15Q608.83-2.25 607.81-3.4 606.78-4.55 606.68-6.1L606.68-6.1 606.68-18.75 600.48-18.75 600.48-16.25 604.08-16.25 604.08-5.2Q604.18-2.7 605.81-1.15 607.43 0.4 610.23 0.4L610.23 0.4Q612.98 0.4 615.21-1.03 617.43-2.45 618.43-4.85ZM627.83 0L637.83 0 637.83-2.5 634.28-2.5 634.28-9.95Q634.28-11.4 634.91-12.63 635.53-13.85 636.53-14.75L636.53-14.75Q637.53-15.6 638.88-16.1 640.23-16.6 641.68-16.6L641.68-16.6Q643.73-16.5 644.76-15.35 645.78-14.2 645.88-12.65L645.88-12.65 645.88-2.5 642.03-2.5 642.03 0 652.03 0 652.03-2.5 648.48-2.5 648.48-10.1Q648.53-11.5 649.16-12.7 649.78-13.9 650.78-14.75L650.78-14.75Q651.78-15.6 653.11-16.1 654.43-16.6 655.88-16.6L655.88-16.6Q657.93-16.5 658.96-15.35 659.98-14.2 660.08-12.65L660.08-12.65 660.08-2.5 656.23-2.5 656.23 0 666.28 0 666.28-2.5 662.68-2.5 662.68-13.55Q662.58-16.05 660.98-17.6 659.38-19.15 656.53-19.15L656.53-19.15Q653.78-19.1 651.66-17.78 649.53-16.45 648.43-14.15L648.43-14.15Q648.18-16.4 646.56-17.78 644.93-19.15 642.33-19.15L642.33-19.15Q639.48-19.1 637.33-17.7 635.18-16.3 634.13-13.9L634.13-13.9Q634.08-14.85 634.03-15.6 633.98-16.35 633.93-17.3L633.93-17.3 633.88-18.75 628.18-18.75 628.18-16.25 631.68-16.25 631.68-2.5 627.83-2.5 627.83 0ZM669.78 0L679.78 0 679.78-2.5 676.23-2.5 676.23-9.95Q676.23-11.4 676.85-12.63 677.48-13.85 678.48-14.75L678.48-14.75Q679.48-15.6 680.83-16.1 682.18-16.6 683.63-16.6L683.63-16.6Q685.68-16.5 686.7-15.35 687.73-14.2 687.83-12.65L687.83-12.65 687.83-2.5 683.98-2.5 683.98 0 693.98 0 693.98-2.5 690.43-2.5 690.43-10.1Q690.48-11.5 691.1-12.7 691.73-13.9 692.73-14.75L692.73-14.75Q693.73-15.6 695.05-16.1 696.38-16.6 697.83-16.6L697.83-16.6Q699.88-16.5 700.9-15.35 701.93-14.2 702.03-12.65L702.03-12.65 702.03-2.5 698.18-2.5 698.18 0 708.23 0 708.23-2.5 704.63-2.5 704.63-13.55Q704.53-16.05 702.93-17.6 701.33-19.15 698.48-19.15L698.48-19.15Q695.73-19.1 693.6-17.78 691.48-16.45 690.38-14.15L690.38-14.15Q690.13-16.4 688.5-17.78 686.88-19.15 684.28-19.15L684.28-19.15Q681.43-19.1 679.28-17.7 677.13-16.3 676.08-13.9L676.08-13.9Q676.03-14.85 675.98-15.6 675.93-16.35 675.88-17.3L675.88-17.3 675.83-18.75 670.13-18.75 670.13-16.25 673.63-16.25 673.63-2.5 669.78-2.5 669.78 0ZM729.18 0L735.23 0 735.23-2.5 731.53-2.5 731.53-18.75 729.38-18.75Q729.33-17.75 729.28-16.78 729.23-15.8 729.18-14.85L729.18-14.85Q728.48-16.55 726.5-17.88 724.53-19.2 721.63-19.2L721.63-19.2Q719.53-19.2 717.73-18.4 715.93-17.6 714.63-16.25L714.63-16.25Q713.28-14.95 712.5-13.15 711.73-11.35 711.73-9.35L711.73-9.35Q711.73-7.35 712.5-5.58 713.28-3.8 714.63-2.5L714.63-2.5Q715.93-1.15 717.73-0.38 719.53 0.4 721.63 0.4L721.63 0.4Q723.13 0.4 724.4 0 725.68-0.4 726.68-1L726.68-1Q727.63-1.6 728.28-2.33 728.93-3.05 729.23-3.75L729.23-3.75Q729.23-3.2 729.2-2.75 729.18-2.3 729.18-1.75L729.18-1.75 729.18 0ZM721.63-16.65L721.63-16.65Q723.13-16.65 724.43-16.1 725.73-15.55 726.78-14.6L726.78-14.6Q727.78-13.65 728.35-12.3 728.93-10.95 728.93-9.4L728.93-9.4Q728.93-7.85 728.35-6.5 727.78-5.15 726.73-4.2L726.73-4.2Q725.73-3.25 724.43-2.7 723.13-2.15 721.63-2.15L721.63-2.15Q720.18-2.15 718.93-2.65 717.68-3.15 716.73-4L716.73-4Q715.63-5 715-6.4 714.38-7.8 714.38-9.4L714.38-9.4Q714.38-10.9 714.88-12.2 715.38-13.5 716.33-14.45L716.33-14.45Q717.28-15.5 718.65-16.07 720.03-16.65 721.63-16.65ZM738.72 0L748.72 0 748.72-2.5 745.17-2.5 745.17-9.95Q745.17-11.5 745.85-12.8 746.52-14.1 747.67-14.95L747.67-14.95Q748.62-15.7 749.87-16.13 751.12-16.55 752.57-16.6L752.57-16.6 752.72-19.15Q751.67-19.15 750.6-18.8 749.52-18.45 748.47-17.75L748.47-17.75Q747.42-17.1 746.52-16.13 745.62-15.15 745.02-13.9L745.02-13.9Q744.97-14.85 744.97-15 744.97-15.15 744.92-16.15L744.92-16.15 744.77-18.75 739.07-18.75 739.07-16.25 742.57-16.25 742.57-2.5 738.72-2.5 738.72 0ZM756.22 0L766.22 0 766.22-2.5 762.57-2.5 762.57-18.75 756.22-18.75 756.22-16.25 759.97-16.25 759.97-2.5 756.22-2.5 756.22 0ZM763.17-25.55L763.17-25.55Q763.17-26.35 762.6-26.9 762.02-27.45 761.32-27.45L761.32-27.45Q760.62-27.45 760.05-26.9 759.47-26.35 759.47-25.55L759.47-25.55Q759.47-24.75 760.05-24.2 760.62-23.65 761.32-23.65L761.32-23.65Q762.02-23.65 762.6-24.2 763.17-24.75 763.17-25.55ZM779.57-16.65L779.57-16.65Q781.27-16.65 782.67-15.7 784.07-14.75 784.92-13.25L784.92-13.25Q781.77-12.05 778.67-10.85 775.57-9.65 772.47-8.45L772.47-8.45Q772.22-9.95 772.62-11.4 773.02-12.85 773.92-14L773.92-14Q774.87-15.2 776.34-15.93 777.82-16.65 779.57-16.65ZM786.07-2.25L786.07-2.25 784.47-4.15Q783.52-3.2 782.27-2.68 781.02-2.15 779.57-2.15L779.57-2.15Q777.42-2.15 775.74-3.2 774.07-4.25 773.22-6L773.22-6Q776.97-7.45 780.72-8.9 784.47-10.35 788.22-11.8L788.22-11.8Q787.77-13.4 786.94-14.75 786.12-16.1 785.07-17.05L785.07-17.05Q783.92-18.05 782.52-18.63 781.12-19.2 779.57-19.2L779.57-19.2Q777.52-19.2 775.72-18.43 773.92-17.65 772.62-16.35L772.62-16.35Q771.27-15 770.49-13.2 769.72-11.4 769.72-9.4L769.72-9.4Q769.72-7.35 770.49-5.58 771.27-3.8 772.62-2.45L772.62-2.45Q773.92-1.15 775.72-0.38 777.52 0.4 779.57 0.4L779.57 0.4Q781.52 0.4 783.17-0.3 784.82-1 786.07-2.25ZM803.47-1.65L803.47-1.65Q804.17-2.5 804.47-3.5 804.77-4.5 804.77-5.3L804.77-5.3Q804.77-6.9 804.14-7.88 803.52-8.85 802.57-9.5L802.57-9.5Q801.57-10.1 800.42-10.5 799.27-10.9 798.32-11.3L798.32-11.3Q797.32-11.7 796.62-12.25 795.92-12.8 795.87-13.8L795.87-13.8Q795.87-14.5 796.12-15.03 796.37-15.55 796.77-15.9L796.77-15.9Q797.22-16.25 797.82-16.4 798.42-16.55 799.02-16.55L799.02-16.55Q799.77-16.55 800.42-16.4 801.07-16.25 801.67-15.9L801.67-15.9 801.67-13.4 804.02-13.4 804.02-17.25Q803.57-17.75 802.92-18.1 802.27-18.45 801.62-18.65L801.62-18.65Q800.82-18.9 800.19-19 799.57-19.1 798.97-19.1L798.97-19.1Q798.07-19.1 797.02-18.78 795.97-18.45 795.12-17.8L795.12-17.8Q794.32-17.15 793.79-16.15 793.27-15.15 793.27-13.8L793.27-13.8Q793.27-12.1 793.94-11.15 794.62-10.2 795.57-9.7L795.57-9.7Q796.62-9.15 797.79-8.8 798.97-8.45 799.92-8.05L799.92-8.05Q800.92-7.7 801.54-7.05 802.17-6.4 802.17-5.2L802.17-5.2Q802.17-4.4 801.87-3.85 801.57-3.3 801.12-2.95L801.12-2.95Q800.57-2.5 799.94-2.33 799.32-2.15 798.67-2.15L798.67-2.15Q797.62-2.15 796.74-2.3 795.87-2.45 795.02-2.95L795.02-2.95 795.02-5.35 792.67-5.35 792.67-1.5Q793.77-0.4 795.34 0 796.92 0.4 798.57 0.4L798.57 0.4Q800.32 0.4 801.54-0.18 802.77-0.75 803.47-1.65Z" opacity="1" transform="matrix(1,0,0,1,0,0)" fill="#777777" class="undefined-text-1" data-fill-palette-color="secondary" id="text-1"></path></svg></g></svg></g></svg></g></svg></g><g></g></svg></g></svg></g></svg></g><g><path d="M115.454 92.723A122.216 122.216 0 0 1 280.066 92.723L277.609 92.723A119.759 119.759 0 0 0 117.911 92.723L115.454 92.723M115.454 154.477A122.216 122.216 0 0 0 280.066 154.477L277.609 154.477A119.759 119.759 0 0 1 117.911 154.477L115.454 154.477" fill="#9c27b0" stroke="transparent" data-fill-palette-color="tertiary"></path></g></svg></g><defs></defs></svg><rect width="395.52" height="247.2" fill="none" stroke="none" visibility="hidden"></rect></g></svg></g></svg>